# xmcd CD database file
#
# Track frame offsets:
#	182
#	23235
#	42555
#	66615
#	86742
#	104645
#	120770
#	140692
#	158787
#	177492
#	198300
#	221435
#	247435
#	264517
#	281827
#	302227
#
# Disc length: 4294 seconds
#
# Revision: 2
# Processed by: cddbd v1.5.2PL0 Copyright (c) Steve Scherf et al.
# Submitted via: CDex 1.51
#
DISCID=fe10c410
DTITLE=Various Artist - New Soul U.S.A. CD1
DYEAR=1997
DGENRE=R&B
TTITLE0=Blackstreet - No Diggity
TTITLE1=The Braxtons - The Boss (Kenlou Radio Mix)
TTITLE2=R. Kelly - I Believe I Can Fly
TTITLE3=Changing Faces - G.H.E.T.T.O.U.T.
TTITLE4=Keith Sweat - Just A Touch
TTITLE5=Zhané - Request Line
TTITLE6=Shaquille O'Neal Feat. Bobby Brown - Edge Of Night
TTITLE7=Lil'Kim Feat. Puff Daddy - No Time
TTITLE8=Junior M.A.F.I.A. Feat. Notoriuous B.I.G. - Gettin' Money
TTITLE9=Mary J Blige - Mary Jane
TTITLE10=Aaliyah - One In A Million
TTITLE11=Ray J - Let It Go
TTITLE12=Erykah Badu - On And On
TTITLE13=New Ed - I'm Still In Love With You
TTITLE14=Joose - If Tomorrow Never Comes
TTITLE15=Mc Lyte - Cold Rock A Party
EXTD=YEAR: 1997
EXTT0=
EXTT1=
EXTT2=
EXTT3=
EXTT4=
EXTT5=
EXTT6=
EXTT7=
EXTT8=
EXTT9=
EXTT10=
EXTT11=
EXTT12=
EXTT13=
EXTT14=
EXTT15=
PLAYORDER=
